<?xml version="1.0" encoding="UTF-8"?>
<svg id="Layer_1" data-name="Layer 1" xmlns="http://www.w3.org/2000/svg" viewBox="0 0 1000 154">
  <defs>
    <style>
      .cls-1 {
        fill: #fff;
        stroke-width: 0px;
      }
    </style>
  </defs>
  <path class="cls-1" d="M36.58,80.86h66.02l33.01,62.16H4l32.58-62.16ZM98.31,69.28h-56.59l28.08-57.66,28.51,57.66Z"/>
  <path class="cls-1" d="M157.69,143.02V11.3l65.8,65.91-.21-66.23,66.13.32v131.72h-85.42v-44.58h-11.15v44.58h-35.15Z"/>
  <path class="cls-1" d="M316.63,11.3h66.02v57.98l-.11,11.57.11,62.16h-65.91l-.11-131.72Z"/>
  <path class="cls-1" d="M403.33,143.02V11.3l65.8,65.91,65.91-65.91v131.72h-34.83v-43.73h-11.15v43.73h-39.44v-44.58h-11.15v44.58h-35.15Z"/>
  <path class="cls-1" d="M622.82,143.02l-65.81-65.8,65.81-65.91,58.09,42.98,2.57,11.57h-58.3l-.43,11.15h63.88v66.02h-43.84v-8.79l-21.97,8.79Z"/>
  <path class="cls-1" d="M842.31,143.02h-131.61V11.3h65.81v32.26h-24.65v11.57h57.44v37.3h-57.02v10.72h90.03v39.87Z"/>
  <path class="cls-1" d="M929.98,80.86h66.02v62.16h-131.61V10.98h65.59v69.88Z"/>
</svg>